<svg id="Слой_1" data-name="Слой 1" xmlns="http://www.w3.org/2000/svg" viewBox="0 0 1920 942.02"><defs><style>.cls-1,.cls-5{fill:#fcda31;}.cls-2{fill:#fda341;}.cls-3{fill:#fecc45;}.cls-4{fill:#fffdef;}.cls-5{opacity:0.7;}</style></defs><title>fon kupon</title><rect class="cls-1" y="-60" width="1920" height="1080"/><circle class="cls-2" cx="284.21" cy="768.83" r="54.79"/><circle class="cls-3" cx="284.21" cy="768.83" r="44.44"/><path class="cls-4" d="M307.38,748.42l-7.2,17.81a7.89,7.89,0,0,0-.08,5.68l6.64,18a1.69,1.69,0,0,1-2.12,2.06l-17.81-7.19a7.84,7.84,0,0,0-5.68-.09l-18,6.65a1.69,1.69,0,0,1-2.06-2.13l7.69-17.59a7.92,7.92,0,0,0,.1-6.1l-7.16-17.82a1.7,1.7,0,0,1,2.13-2.06l17.81,7.2a7.89,7.89,0,0,0,5.68.08l18-6.64A1.69,1.69,0,0,1,307.38,748.42Z"/><circle class="cls-2" cx="1752.16" cy="275.66" r="54.79"/><circle class="cls-3" cx="1752.16" cy="275.66" r="44.44"/><path class="cls-4" d="M1782.71,271.15l-15.73,11a7.83,7.83,0,0,0-3.17,4.72l-4.23,18.73a1.69,1.69,0,0,1-2.9.58l-11-15.73a7.85,7.85,0,0,0-4.72-3.17l-18.74-4.23a1.69,1.69,0,0,1-.57-2.9l16-10.58a7.85,7.85,0,0,0,3.4-5.06l3.7-18.84a1.69,1.69,0,0,1,2.9-.58l11,15.73a7.83,7.83,0,0,0,4.71,3.17l18.74,4.23A1.69,1.69,0,0,1,1782.71,271.15Z"/><circle class="cls-2" cx="206.84" cy="19.48" r="77.38"/><circle class="cls-3" cx="206.84" cy="19.48" r="62.77"/><path class="cls-4" d="M250.43,20.37,225.93,32a11.16,11.16,0,0,0-5.51,5.83L210.13,63a2.39,2.39,0,0,1-4.18.12l-11.66-24.5a11.13,11.13,0,0,0-5.83-5.51l-25.11-10.3a2.38,2.38,0,0,1-.11-4.17l24.81-11A11.15,11.15,0,0,0,194,1.38L203.55-24a2.38,2.38,0,0,1,4.17-.11L219.38.38a11.15,11.15,0,0,0,5.83,5.52l25.11,10.29A2.39,2.39,0,0,1,250.43,20.37Z"/><circle class="cls-2" cx="1582.22" cy="760.6" r="77.38"/><circle class="cls-3" cx="1582.22" cy="760.6" r="62.77"/><path class="cls-4" d="M1625.82,761.48l-24.5,11.66a11.15,11.15,0,0,0-5.52,5.83l-10.29,25.11a2.38,2.38,0,0,1-4.17.11l-11.67-24.5a11.16,11.16,0,0,0-5.83-5.51l-25.1-10.29a2.39,2.39,0,0,1-.12-4.18l24.82-11a11.11,11.11,0,0,0,5.91-6.26l9.58-25.38a2.38,2.38,0,0,1,4.17-.11l11.67,24.5a11.13,11.13,0,0,0,5.83,5.51l25.1,10.3A2.38,2.38,0,0,1,1625.82,761.48Z"/><rect class="cls-5" x="-15.28" y="-77.21" width="1968.2" height="1114.42"/><circle class="cls-2" cx="950" cy="947.51" r="115.47"/><circle class="cls-3" cx="950" cy="947.51" r="93.67"/><path class="cls-4" d="M1014.49,956.2l-38.3,13.15a16.62,16.62,0,0,0-9.16,7.71l-19.51,35.47a3.56,3.56,0,0,1-6.21-.53l-13.15-38.3a16.59,16.59,0,0,0-7.71-9.16L885,945a3.55,3.55,0,0,1,.53-6.2l38.65-12.06a16.66,16.66,0,0,0,9.83-8.27l18.5-36a3.55,3.55,0,0,1,6.2.54l13.15,38.3a16.62,16.62,0,0,0,7.71,9.16L1015,950A3.56,3.56,0,0,1,1014.49,956.2Z"/><circle class="cls-2" cx="1532.79" cy="19.48" r="115.47"/><circle class="cls-3" cx="1532.79" cy="19.48" r="93.67"/><path class="cls-4" d="M1597.23,28.55l-38.37,12.92a16.63,16.63,0,0,0-9.21,7.66l-19.72,35.36a3.56,3.56,0,0,1-6.2-.57L1510.8,45.55a16.54,16.54,0,0,0-7.65-9.21l-35.36-19.72a3.56,3.56,0,0,1,.57-6.21l38.71-11.83A16.62,16.62,0,0,0,1517-9.63l18.71-35.9a3.56,3.56,0,0,1,6.2.58l12.93,38.37a16.61,16.61,0,0,0,7.65,9.21l35.36,19.71A3.56,3.56,0,0,1,1597.23,28.55Z"/></svg>