<svg xmlns="http://www.w3.org/2000/svg" viewBox="0 0 1065.47 693.02"><defs><style>.cls-1{font-size:12px;font-family:CastoCyrillic-Regular, Casto Cyrillic;}.cls-2{fill:#fc6051;}.cls-3{fill:#fda341;}.cls-4{fill:#fecc45;}.cls-5{fill:#fffdef;}</style></defs><title>kupon</title><g id="Слой_2" data-name="Слой 2"><g id="Слой_1-2" data-name="Слой 1"><text class="cls-1" transform="translate(56.08 409.43)"> </text><path class="cls-2" d="M1065.47,635.93h0V607.81a25.67,25.67,0,1,1,0-51.29v-42.2c-.36,0-.71,0-1.07,0a25.67,25.67,0,0,1,0-51.34c.36,0,.71,0,1.07,0V420.87h0a25.67,25.67,0,0,1,0-51.34h0V327.39h0a25.67,25.67,0,0,1,0-51.34h0V252.47h0a57.09,57.09,0,0,1-57.09-57.09H750.8a57.1,57.1,0,0,1-51.67,56.83l-9.24.12a57.09,57.09,0,0,1-53.26-57H57.09A57.09,57.09,0,0,1,0,252.47v23.58a25.67,25.67,0,0,1,25.67,25.67A25.67,25.67,0,0,1,0,327.39v42.14a25.67,25.67,0,0,1,0,51.34V463a25.66,25.66,0,0,1,24.6,25.64A25.66,25.66,0,0,1,0,514.32v42.2A25.58,25.58,0,0,1,17.08,564a25.66,25.66,0,0,1,0,36.3A25.59,25.59,0,0,1,0,607.81v28.12A57.09,57.09,0,0,1,57.09,693H636.63a57.08,57.08,0,0,1,53.26-56.95l9.24.12A57.09,57.09,0,0,1,750.8,693h257.58A57.09,57.09,0,0,1,1065.47,635.93Z"/><circle class="cls-3" cx="225.54" cy="115.5" r="115.47"/><circle class="cls-4" cx="225.54" cy="115.5" r="93.67"/><path class="cls-5" d="M288.76,100.1l-30.88,26.2a16.57,16.57,0,0,0-5.72,10.51L246.91,177a3.56,3.56,0,0,1-6,1.76l-26.19-30.87a16.63,16.63,0,0,0-10.52-5.73l-40.15-5.25a3.55,3.55,0,0,1-1.76-6l31.6-25.31a16.58,16.58,0,0,0,6.14-11.28L204.16,54a3.56,3.56,0,0,1,6-1.76l26.19,30.87a16.63,16.63,0,0,0,10.52,5.73L287,94.13A3.55,3.55,0,0,1,288.76,100.1Z"/></g></g></svg>