<svg xmlns="http://www.w3.org/2000/svg" viewBox="0 0 207.04 27.62"><defs><style>.cls-1{fill:#fff;}</style></defs><title>logo white</title><g id="Слой_2" data-name="Слой 2"><g id="Слой_1-2" data-name="Слой 1"><path class="cls-1" d="M137.84,18.45h6.29l1.39,3.64H148L142,6.27h-2l-6,15.82h2.51Zm.88-2.26L141,9.91l2.27,6.28Z"/><path class="cls-1" d="M151.92,6.27h-2.26V22.09h2.26Z"/><path class="cls-1" d="M157.33,10.79h-2.27v11.3h2.27ZM156.2,9a1.38,1.38,0,1,0-1.39-1.38A1.39,1.39,0,0,0,156.2,9Z"/><path class="cls-1" d="M163.62,12.93h2.52V10.79h-2.52v-3h-1.89v1.5a1.45,1.45,0,0,1-1.51,1.51h-.88v2.14h2v5.4c0,2.38,1.51,3.89,3.53,3.89a3.11,3.11,0,0,0,1.26-.25V20a2.9,2.9,0,0,1-.76.12,1.71,1.71,0,0,1-1.76-1.75Z"/><path class="cls-1" d="M176.46,16.44a3.18,3.18,0,1,1-6.29,0,3.18,3.18,0,1,1,6.29,0Zm2.27,0a5.43,5.43,0,1,0-10.83,0,5.43,5.43,0,1,0,10.83,0Z"/><path class="cls-1" d="M189.05,16.44a3.18,3.18,0,1,1-6.3,0,3.18,3.18,0,1,1,6.3,0Zm2.26,0a5.42,5.42,0,1,0-10.82,0,5.42,5.42,0,1,0,10.82,0Z"/><path class="cls-1" d="M196.09,6.27h-2.26V22.09h2.26Z"/><path class="cls-1" d="M198.6,18.45c.13,2.39,1.52,3.77,4.28,3.77S207,20.71,207,18.7c0-4-6-2.63-6-4.64,0-.63.63-1.26,1.76-1.26a1.74,1.74,0,0,1,1.89,1.38h2.26c-.12-2.13-1.51-3.51-4.15-3.51-2.39,0-3.9,1.5-3.9,3.39,0,4,6,2.63,6,4.64,0,.76-.63,1.38-2,1.38a1.77,1.77,0,0,1-2-1.63Z"/><path class="cls-1" d="M128.66,11.59a2,2,0,1,1-2-2A2,2,0,0,1,128.66,11.59Z"/><path class="cls-1" d="M124.26,5.75a6.38,6.38,0,0,1,4.82,0,6.25,6.25,0,0,1,2,1.35A6.08,6.08,0,0,1,133,11a6.19,6.19,0,0,1-1.19,4.16c-.5.66-1,1.3-1.59,1.91h0a2.69,2.69,0,0,0-.87,2.34.36.36,0,0,1-.11.25.35.35,0,0,1-.24.1h-4.57a.31.31,0,0,1-.13,0,.24.24,0,0,1-.12-.07.36.36,0,0,1-.08-.12.51.51,0,0,1,0-.13,2.64,2.64,0,0,0-.84-2.32h0a21.21,21.21,0,0,1-1.62-1.93,6.18,6.18,0,0,1-.74-6.06h0a6.3,6.3,0,0,1,3.42-3.36Zm3,2.4a.33.33,0,0,0-.31-.22h-.54a.33.33,0,0,0-.31.22l-.15.39a.35.35,0,0,1-.22.21,3.2,3.2,0,0,0-.39.16.35.35,0,0,1-.3,0l-.38-.17a.33.33,0,0,0-.38.06l-.38.38a.34.34,0,0,0-.06.37L124,10a.32.32,0,0,1,0,.3c-.06.13-.11.25-.16.39a.35.35,0,0,1-.21.22l-.39.15a.33.33,0,0,0-.22.31v.53a.35.35,0,0,0,.22.32l.39.14a.37.37,0,0,1,.21.23c0,.13.1.26.16.38a.34.34,0,0,1,0,.31l-.17.38a.33.33,0,0,0,.06.37l.38.38a.34.34,0,0,0,.38.07l.38-.18a.39.39,0,0,1,.3,0,2.14,2.14,0,0,0,.39.16.38.38,0,0,1,.22.21l.15.4a.33.33,0,0,0,.31.21h.54a.33.33,0,0,0,.31-.21l.15-.4a.35.35,0,0,1,.22-.21,1.8,1.8,0,0,0,.38-.16.42.42,0,0,1,.31,0l.38.18a.32.32,0,0,0,.37-.07l.38-.38a.32.32,0,0,0,.07-.37l-.17-.38a.34.34,0,0,1,0-.31c.06-.12.11-.25.16-.38a.35.35,0,0,1,.2-.23l.4-.14a.34.34,0,0,0,.21-.32v-.53a.33.33,0,0,0-.21-.31l-.4-.15a.34.34,0,0,1-.2-.22c0-.14-.1-.26-.16-.39a.32.32,0,0,1,0-.3l.17-.39a.32.32,0,0,0-.07-.37l-.38-.38a.32.32,0,0,0-.37-.06l-.38.17a.37.37,0,0,1-.31,0,2.54,2.54,0,0,0-.38-.16.33.33,0,0,1-.22-.21Z"/><path class="cls-1" d="M124.48,20.85h4.36a.33.33,0,0,0,.25-.11.31.31,0,0,0,.1-.24.34.34,0,0,0-.35-.35h-4.36a.3.3,0,0,0-.13,0,.5.5,0,0,0-.12.08.41.41,0,0,0-.07.11.32.32,0,0,0,0,.14.31.31,0,0,0,0,.13.41.41,0,0,0,.07.11.32.32,0,0,0,.12.08A.31.31,0,0,0,124.48,20.85Z"/><path class="cls-1" d="M128.73,21.21h-4.14a.31.31,0,0,0-.13,0,.35.35,0,0,0-.12.07.83.83,0,0,0-.08.12.31.31,0,0,0,0,.13.32.32,0,0,0,0,.14.83.83,0,0,0,.08.12.35.35,0,0,0,.12.07.2.2,0,0,0,.13,0h4.14a.22.22,0,0,0,.14,0l.12-.07a.37.37,0,0,0,.07-.12.32.32,0,0,0,0-.14.31.31,0,0,0,0-.13.37.37,0,0,0-.07-.12l-.12-.07A.32.32,0,0,0,128.73,21.21Z"/><path class="cls-1" d="M125.34,22.28c-.25,0-.31.15-.15.33l.27.28a1.1,1.1,0,0,0,.68.33h1a1.12,1.12,0,0,0,.69-.33l.27-.28c.16-.18.1-.33-.15-.33Z"/><g id="layer1"><g id="g43"><g id="g32"><path id="path12" class="cls-1" d="M25,21.67V6.23h9.13V8.17H26.91v4.74h6.5v1.94h-6.5v4.84h7.74v1.93H25Z"/><path id="path14" class="cls-1" d="M44.24,21.67l-3.14-4.1L38,21.67H35.76l4.29-5.48-4.52-5.67H38l3.08,4.24,3.14-4.24h2.44L42.4,16.19l4.05,5.48Z"/><path id="path16" class="cls-1" d="M49.49,20v7.61H47.6V16.23a5.87,5.87,0,0,1,5.67-6c3.5,0,6.13,2.21,6.13,5.85a5.78,5.78,0,0,1-5.71,6c-1.48,0-3.46-.65-4.2-2.08Zm7.93-3.92c0-2.48-1.61-4-4.47-3.82-1.38.05-3.5,1.06-3.32,4.61A3.79,3.79,0,0,0,53.5,20.2C55.76,20.2,57.42,18.91,57.42,16.09Z"/><path id="path18" class="cls-1" d="M61,21.67V10.52H62.9v1.2a4.94,4.94,0,0,1,3.87-1.43v2c-.23-.05-2.49-.33-3.87,2.62v6.78H61Z"/><path id="path20" class="cls-1" d="M67.28,16.09a5.58,5.58,0,0,1,5.48-5.85c4,0,5.44,2.63,5.44,6v.92H69.35a3.52,3.52,0,0,0,3.78,3.18A4.13,4.13,0,0,0,76.22,19l1.24,1.29A6.27,6.27,0,0,1,73,22.13a5.72,5.72,0,0,1-5.76-6Zm5.34-4a3.42,3.42,0,0,0-3.27,3.27h6.87A3.29,3.29,0,0,0,72.62,12.13Z"/><path id="path22" class="cls-1" d="M79.17,20.1l1.38-1.24a5.71,5.71,0,0,0,.78.78,2.47,2.47,0,0,0,1.06.56c1.2.32,3.37.23,3.55-1.43.09-.92-.6-1.43-1.38-1.75-1-.37-2.12-.51-3.13-1a2.81,2.81,0,0,1-1.89-2.67c0-3.37,4.79-3.92,7-2.35.09.09,1.15,1.06,1.1,1.06l-1.38,1.1A3.11,3.11,0,0,0,83.41,12c-.74,0-1.75.32-1.94,1.1-.27,1.11,1,1.52,1.8,1.75a11.71,11.71,0,0,1,3.27,1.06,3.37,3.37,0,0,1,1.15,4C87.14,21.39,85.48,22,84,22a5.71,5.71,0,0,1-4.52-1.71C79.4,20.33,79.17,20.1,79.17,20.1Z"/><path id="path24" class="cls-1" d="M88.89,20.1l1.38-1.24a6.5,6.5,0,0,0,.79.78,2.37,2.37,0,0,0,1.06.56c1.2.32,3.36.23,3.55-1.43.09-.92-.6-1.43-1.39-1.75-1-.37-2.12-.51-3.13-1a2.83,2.83,0,0,1-1.89-2.67c0-3.37,4.79-3.92,7-2.35.09.09,1.15,1.06,1.1,1.06l-1.38,1.1A3.1,3.1,0,0,0,93.13,12c-.74,0-1.75.32-1.93,1.1-.28,1.11,1,1.52,1.79,1.75a11.61,11.61,0,0,1,3.27,1.06,3.38,3.38,0,0,1,1.16,4A3.86,3.86,0,0,1,93.73,22a5.71,5.71,0,0,1-4.52-1.71C89.12,20.33,88.89,20.1,88.89,20.1Z"/><g id="g30"><path id="path26" class="cls-1" d="M97.88,10.52V9.32h-.42V9.09h1.11v.23h-.42v1.2Z"/><path id="path28" class="cls-1" d="M100,10.52V9.41l-.41,1.11h-.1L99,9.41v1.11H98.8V9.09h.37l.37,1,.37-1h.36v1.43Z"/></g></g><g id="g41"><path id="path34" class="cls-1" d="M12.21,21.67,10.83,18H3.36L2,21.67H0L6,6.23H8.16L14.1,21.67ZM7,8.44,4.19,16.09h5.86Z"/><path id="path36" class="cls-1" d="M15.35,21.67V6.23h1.93V21.67Z"/><path id="path38" class="cls-1" d="M20.18,21.67V10.75h1.94V21.67Z"/><path id="_Контур_" data-name="&lt;Контур&gt;" class="cls-1" d="M24,7.2V7A2.83,2.83,0,0,1,21.24,4.3H21A2.83,2.83,0,0,1,18.25,7V7.2A2.83,2.83,0,0,1,21,9.92h.27A2.83,2.83,0,0,1,24,7.2Z"/></g></g></g><rect class="cls-1" x="109.19" width="0.98" height="27.62"/></g></g></svg>