<svg xmlns="http://www.w3.org/2000/svg" viewBox="0 0 389.68 56.47"><defs><style>.cls-1{fill:#4ebea9;}.cls-2{fill:#e43225;}.cls-3{fill:#f7971d;}.cls-4{fill:#fff;}</style></defs><title>logo color</title><g id="Слой_2" data-name="Слой 2"><g id="Слой_1-2" data-name="Слой 1"><path class="cls-1" d="M259.44,36.4h11.84l2.61,6.86h4.73L267.25,13.47h-3.79L252.09,43.26h4.74Zm1.65-4.25,4.27-11.82,4.26,11.82Z"/><path class="cls-1" d="M286,13.47h-4.27V43.26H286Z"/><path class="cls-1" d="M296.12,22h-4.26V43.26h4.26ZM294,18.67a2.6,2.6,0,1,0-2.61-2.6A2.62,2.62,0,0,0,294,18.67Z"/><path class="cls-1" d="M308,26h4.74V22H308V16.31h-3.55v2.84A2.73,2.73,0,0,1,301.57,22h-1.66v4h3.79V36.16c0,4.5,2.84,7.33,6.63,7.33A5.8,5.8,0,0,0,312.7,43V39.24a5.29,5.29,0,0,1-1.42.23A3.23,3.23,0,0,1,308,36.16Z"/><path class="cls-1" d="M332.13,32.62c0,4-2.84,6.85-5.92,6.85s-5.92-2.83-5.92-6.85,2.84-6.86,5.92-6.86S332.13,28.6,332.13,32.62Zm4.27,0c0-6.38-4.5-10.87-10.19-10.87S316,26.24,316,32.62s4.51,10.87,10.19,10.87S336.4,39,336.4,32.62Z"/><path class="cls-1" d="M355.82,32.62c0,4-2.84,6.85-5.92,6.85S344,36.64,344,32.62s2.84-6.86,5.92-6.86S355.82,28.6,355.82,32.62Zm4.26,0c0-6.38-4.5-10.87-10.18-10.87s-10.19,4.49-10.19,10.87,4.5,10.87,10.19,10.87S360.08,39,360.08,32.62Z"/><path class="cls-1" d="M369.09,13.47h-4.27V43.26h4.27Z"/><path class="cls-1" d="M373.81,36.4c.24,4.49,2.84,7.09,8.05,7.09,5,0,7.82-2.83,7.82-6.62,0-7.56-11.37-5-11.37-8.74,0-1.18,1.18-2.37,3.32-2.37s3.31,1.19,3.55,2.6h4.26c-.23-4-2.84-6.61-7.81-6.61-4.5,0-7.35,2.83-7.35,6.38,0,7.56,11.37,5,11.37,8.74,0,1.42-1.18,2.6-3.79,2.6-2.37,0-3.55-1.18-3.79-3.07Z"/><path class="cls-1" d="M242.17,23.48a3.76,3.76,0,1,1-3.76-3.75A3.75,3.75,0,0,1,242.17,23.48Z"/><path class="cls-1" d="M233.87,12.49a12,12,0,0,1,9.09,0A11.84,11.84,0,0,1,246.81,15,11.61,11.61,0,0,1,248,30.24a42.76,42.76,0,0,1-3,3.59h0a5.07,5.07,0,0,0-1.65,4.4.68.68,0,0,1-.19.47.7.7,0,0,1-.47.19h-8.59a.75.75,0,0,1-.26,0,.6.6,0,0,1-.21-.14.48.48,0,0,1-.15-.22.7.7,0,0,1-.05-.25c0-2.2-.2-2.88-1.58-4.37h0a39,39,0,0,1-3-3.63,11.63,11.63,0,0,1-1.39-11.4v0A11.83,11.83,0,0,1,230,15,12,12,0,0,1,233.87,12.49ZM239.5,17a.61.61,0,0,0-.58-.41h-1a.63.63,0,0,0-.59.41l-.28.74a.64.64,0,0,1-.41.39,4.66,4.66,0,0,0-.73.3.67.67,0,0,1-.57,0l-.72-.33a.61.61,0,0,0-.7.13l-.72.71a.65.65,0,0,0-.13.7l.33.72a.66.66,0,0,1,0,.58,7.76,7.76,0,0,0-.3.72.65.65,0,0,1-.39.42l-.74.28a.63.63,0,0,0-.41.58v1a.64.64,0,0,0,.41.59l.74.28a.65.65,0,0,1,.39.42,7.76,7.76,0,0,0,.3.72.64.64,0,0,1,0,.57l-.33.73a.65.65,0,0,0,.13.7l.72.71a.63.63,0,0,0,.7.13l.72-.33a.67.67,0,0,1,.57,0c.23.11.48.21.73.3a.64.64,0,0,1,.41.39l.28.74a.63.63,0,0,0,.59.41h1a.61.61,0,0,0,.58-.41l.28-.74a.65.65,0,0,1,.42-.39,7.76,7.76,0,0,0,.72-.3.69.69,0,0,1,.58,0l.72.33a.63.63,0,0,0,.7-.13l.71-.71a.62.62,0,0,0,.13-.7l-.33-.73a.67.67,0,0,1,0-.57,4.55,4.55,0,0,0,.3-.72.71.71,0,0,1,.39-.42l.75-.28a.63.63,0,0,0,.4-.59V23a.62.62,0,0,0-.4-.58l-.75-.28a.71.71,0,0,1-.39-.42,4.55,4.55,0,0,0-.3-.72.69.69,0,0,1,0-.58l.33-.72a.62.62,0,0,0-.13-.7l-.71-.71a.61.61,0,0,0-.7-.13l-.72.33a.69.69,0,0,1-.58,0,4.55,4.55,0,0,0-.72-.3.65.65,0,0,1-.42-.39Z"/><path class="cls-1" d="M234.3,40.91h8.21a.66.66,0,0,0,.46-1.13.66.66,0,0,0-.46-.19H234.3a.58.58,0,0,0-.26,0,.64.64,0,0,0-.35.35.58.58,0,0,0-.05.26.56.56,0,0,0,.05.25.6.6,0,0,0,.14.21.8.8,0,0,0,.21.15A.75.75,0,0,0,234.3,40.91Z"/><path class="cls-1" d="M242.3,41.6h-7.79a.58.58,0,0,0-.26,0,.64.64,0,0,0-.22.14.8.8,0,0,0-.15.21.75.75,0,0,0,0,.26.61.61,0,0,0,.2.47.64.64,0,0,0,.22.14.58.58,0,0,0,.26.05h7.79a.6.6,0,0,0,.26-.05.74.74,0,0,0,.22-.14.6.6,0,0,0,.14-.21.6.6,0,0,0,.05-.26.58.58,0,0,0-.05-.26.6.6,0,0,0-.14-.21.74.74,0,0,0-.22-.14A.6.6,0,0,0,242.3,41.6Z"/><path class="cls-1" d="M235.9,43.61c-.45,0-.57.28-.27.61l.5.54a2.06,2.06,0,0,0,1.29.61h2a2,2,0,0,0,1.29-.61l.5-.54c.31-.33.19-.61-.27-.61Z"/><g id="layer1"><g id="g43"><g id="g32"><path id="path12" class="cls-2" d="M47.1,42.46V13.4H64.27v3.65H50.65V26H62.88v3.64H50.65v9.11H65.22v3.64H47.1Z"/><path id="path14" class="cls-2" d="M83.26,42.46l-5.89-7.72-5.9,7.72H67.31l8.06-10.32-8.5-10.67h4.69l5.81,8,5.89-8h4.6L79.8,32.14l7.63,10.32Z"/><path id="path16" class="cls-2" d="M93.15,39.34V53.65H89.6V32.22C89.6,26.76,93.76,21,100.26,21s11.54,4.16,11.54,11a10.88,10.88,0,0,1-10.75,11.28c-2.78,0-6.51-1.22-7.9-3.9ZM108.07,32c0-4.68-3-7.46-8.41-7.2-2.6.09-6.59,2-6.25,8.68a7.13,7.13,0,0,0,7.29,6.24C105,39.68,108.07,37.25,108.07,32Z"/><path id="path18" class="cls-2" d="M114.84,42.46v-21h3.55v2.25c1.74-2,4.43-2.68,7.29-2.68v3.81c-.44-.09-4.69-.61-7.29,4.95V42.55h-3.55Z"/><path id="path20" class="cls-2" d="M126.63,32c0-6.07,4.34-11,10.32-11,7.46,0,10.24,4.94,10.24,11.27V34H130.53c.27,4,3.82,6.07,7.12,6a7.8,7.8,0,0,0,5.81-2.51l2.34,2.43a11.8,11.8,0,0,1-8.33,3.47c-6.33-.09-10.84-4.77-10.84-11.37Zm10.06-7.46a6.43,6.43,0,0,0-6.16,6.16h12.93C143.46,27.54,141.2,24.5,136.69,24.5Z"/><path id="path22" class="cls-2" d="M149,39.51l2.6-2.34a10.8,10.8,0,0,0,1.48,1.47,4.34,4.34,0,0,0,2,1c2.26.61,6.33.44,6.68-2.69.17-1.73-1.13-2.68-2.6-3.29-1.91-.7-4-1-5.9-1.82a5.33,5.33,0,0,1-3.56-5c0-6.34,9-7.38,13.1-4.43.17.18,2.17,2,2.08,2l-2.6,2.08c-1.3-1.56-2.52-2.34-5.29-2.34-1.39,0-3.3.6-3.64,2.08-.52,2.08,1.82,2.86,3.38,3.3,2.08.52,4.34.86,6.16,2,2.51,1.56,3.12,4.94,2.17,7.55-1.05,2.86-4.17,4-6.94,4.07a10.68,10.68,0,0,1-8.5-3.21C149.44,39.94,149,39.51,149,39.51Z"/><path id="path24" class="cls-2" d="M167.31,39.51l2.6-2.34a11.41,11.41,0,0,0,1.48,1.47,4.34,4.34,0,0,0,2,1c2.26.61,6.33.44,6.68-2.69.17-1.73-1.13-2.68-2.6-3.29-1.91-.7-4-1-5.9-1.82a5.33,5.33,0,0,1-3.56-5c0-6.34,9-7.38,13.1-4.43.17.18,2.17,2,2.08,2l-2.6,2.08c-1.3-1.56-2.51-2.34-5.29-2.34-1.39,0-3.3.6-3.64,2.08-.52,2.08,1.82,2.86,3.38,3.3,2.08.52,4.34.86,6.16,2,2.51,1.56,3.12,4.94,2.17,7.55-1,2.86-4.17,4-6.94,4.07a10.68,10.68,0,0,1-8.5-3.21C167.74,39.94,167.31,39.51,167.31,39.51Z"/><g id="g30"><path id="path26" class="cls-2" d="M184.22,21.47V19.21h-.78v-.43h2.08v.43h-.78v2.26Z"/><path id="path28" class="cls-2" d="M188.13,21.47V19.39l-.78,2.08h-.18l-.78-2.08v2.08H186V18.78h.69l.7,1.82.69-1.82h.69v2.69Z"/></g></g><g id="g41"><path id="path34" class="cls-3" d="M23,42.46l-2.6-6.94h-14l-2.6,6.94H0L11.28,13.4h4.07L26.54,42.46Zm-9.8-24.89L7.89,32h11Z"/><path id="path36" class="cls-3" d="M28.88,42.46V13.4h3.65V42.46Z"/><path id="path38" class="cls-3" d="M38,42.46V21.9h3.64V42.46Z"/><path id="_Контур_" data-name="&lt;Контур&gt;" class="cls-3" d="M45.1,15.22v-.34A5.31,5.31,0,0,1,40,9.76h-.52a5.3,5.3,0,0,1-5.11,5.12v.34a5.31,5.31,0,0,1,5.11,5.12H40A5.32,5.32,0,0,1,45.1,15.22Z"/></g></g></g><rect class="cls-4" x="203.68" width="2.58" height="56.47"/></g></g></svg>