<?xml version="1.0" encoding="utf-8"?>
<!-- Generator: Adobe Illustrator 22.1.0, SVG Export Plug-In . SVG Version: 6.00 Build 0)  -->
<svg version="1.1" id="Слой_1" xmlns="http://www.w3.org/2000/svg" xmlns:xlink="http://www.w3.org/1999/xlink" x="0px" y="0px"
	 viewBox="0 0 456.9 103.7" style="enable-background:new 0 0 456.9 103.7;" xml:space="preserve">
<style type="text/css">
	.st0{fill:#FC3A35;}
	.st1{fill:#FFFFFF;}
	.st2{font-family:'Arial-BoldMT';}
	.st3{font-size:34.26px;}
	.st4{letter-spacing:1;}
</style>
<title>1</title>
<g id="Слой_2_1_">
	<g id="Слой_1-2">
		<path class="st0" d="M12,0h432.9c6.6,0,12,5.4,12,12v79.7c0,6.6-5.4,12-12,12H12c-6.6,0-12-5.4-12-12V12C0,5.4,5.4,0,12,0z"/>
		<text transform="matrix(1 0 0 1 140.42 65.14)" class="st1 st2 st3">ПО</text>
		<text transform="matrix(1 0 0 1 190.98 65.14)" class="st1 st2 st3">Е</text>
		<text transform="matrix(1 0 0 1 210.68 65.14)" class="st1 st2 st3">Х</text>
		<text transform="matrix(1 0 0 1 234.39 65.14)" class="st1 st2 st3 st4">А</text>
		<text transform="matrix(1 0 0 1 258.99 65.14)" class="st1 st2 st3">ЛИ!</text>
	</g>
</g>
</svg>
