<svg xmlns="http://www.w3.org/2000/svg" viewBox="0 0 554.32 509.98"><defs><style>.cls-1{fill:#45bac9;}.cls-2{fill:#ffb99f;}.cls-3{fill:#e08365;}.cls-4{fill:#954236;}.cls-5{fill:#491b05;}.cls-13,.cls-6{fill:#fff;}.cls-7{font-size:55.76px;}.cls-11,.cls-12,.cls-7,.cls-9{fill:#fc3a35;}.cls-11,.cls-13,.cls-7,.cls-9{font-family:"CastoCyrillic-Bold", Casto Cyrillic;font-weight:700;}.cls-8{fill:#d85544;}.cls-9{font-size:57.53px;}.cls-10{fill:#fae9e2;}.cls-11{font-size:56.12px;}.cls-13{font-size:34.26px;}.cls-14{letter-spacing:0em;}.cls-15{letter-spacing:0.02em;}.cls-16{letter-spacing:0.03em;}</style></defs><title>1</title><g id="Слой_2" data-name="Слой 2"><g id="Слой_1-2" data-name="Слой 1"><path class="cls-1" d="M467.65,328.82l7.28.3c5.81.25,9.53-.17,8.85-7.63a64.52,64.52,0,0,1-.06-8q1.5-45,2-90c.3-29.31-.91-58.76-.19-88-.15-9.2-.44-18.39-.92-27.57-.22-4.26.86-21.21-2.54-23.55a3.75,3.75,0,0,0-1.89-.49,129.77,129.77,0,0,0-15-.2c-5.3.24-6.5,4.23-6.44,9.64.41,33.77,1.33,67.66.68,101.36q-.67,35.25-1.13,70.52Q458,283.3,458,301.4c0,6.94-3.78,26.85,5,27.22Z"/><path class="cls-2" d="M438.47,438.19c.12-1.37.26-2.63.33-3.89.26-4.48.69-8.95,1.18-13.41.23-2.17.28-4.37.52-6.54.51-4.6.61-9.23,1.28-13.82.36-2.45.49-4.94.75-7.4.41-3.95.85-7.9,1.27-11.84.34-3.12.65-6.24,1-9.35.21-1.75.58-3.48.73-5.23.48-5.48,1.48-10.9,2.12-16.37.41-3.51,1-7,1.59-10.5.34-1.95.93-3.86,1.23-5.82a57.78,57.78,0,0,1,1.74-7.93,8.08,8.08,0,0,0,.3-1.38,19.23,19.23,0,0,1,2.55-6.73c.85-1.54,1.31-1.62,2.07-3.22,1.73-3.6.94-66.92,1.4-67.29,2-1.63,2.67-3.41,4.64-5.06.36-.31.69-.65,1-1,.75-.71,1.53-1.41,2.27-2.14s1.26-1.29,1.84-2,.92-1.28,1.43-1.89a14,14,0,0,0,2.64-6.09,5.35,5.35,0,0,0-1-4.31,4.22,4.22,0,0,0-4.14-1.78,19.22,19.22,0,0,0-6.65,2,45.75,45.75,0,0,1-7.44,3.21c-1.34.42-2.7.75-4.05,1.09a15.67,15.67,0,0,0-8.47,5.28c-.83,1-1.77,1.94-2.52,3-1.37,2-2.64,4-3.94,6.07-.53.82-1,1.66-1.51,2.49-.18.28-.38.56-.55.85l-4.2,7.19c-.18.31-.35.63-.55.93-1.86,2.88-3.71,5.77-5.6,8.64s-3.21,5.85-4.8,8.78a55.37,55.37,0,0,0-5.25,15.87,51.3,51.3,0,0,0-.9,8.67c0,1.55-.3,3.09-.43,4.65s-.3,3.41-.35,5.12a84.93,84.93,0,0,1-.79,9.3c-.26,1.83-.32,3.69-.49,5.53-.21,2.26-.46,4.53-.67,6.8-.13,1.41-.16,2.84-.34,4.25q-.47,3.61-1.06,7.22c-.41,2.56-.83,5.12-1.37,7.66-.83,3.85-1.73,7.69-2.65,11.53-.65,2.74-1.3,5.49-2.08,8.2-1.26,4.38-2.6,8.73-3.95,13.08q-4.12,13.17-8.3,26.32c-1.63,5.19-3.28,10.36-4.88,15.56-1.09,3.55-2.05,7.15-3.18,10.7a52,52,0,0,0-1.7,5.62,2.7,2.7,0,0,0,.33,1.91,1.82,1.82,0,0,0,2.06,1c1.67-.13,3.34-.2,5-.3a1.61,1.61,0,0,0,.66-.1,4.34,4.34,0,0,1,1.92-.25c3.45-.14,6.9-.27,10.35-.45,3.29-.18,6.58-.4,9.87-.63,5.05-.34,10.09-.72,15.14-1,4.06-.25,8.12-.42,12.18-.63C436.88,438.32,437.64,438.25,438.47,438.19Z"/><path class="cls-2" d="M499.57,247.61c.92-1,1.78-1.78,2.57-2.66,1.31-1.47,2.61-3,2.88-5a14.12,14.12,0,0,0-.18-5.38,8.13,8.13,0,0,0-5.35-5.68,8.8,8.8,0,0,0-7.61.08c-1.49.59-4.88,2-6.31,2.75,0,0,0,1,0,1.87a5.27,5.27,0,0,1-.4,2.22,49.5,49.5,0,0,1-7.64,6.21,32.87,32.87,0,0,0-5.38,4.32,15.38,15.38,0,0,0-2.53,3.82,3.84,3.84,0,0,0-.3,2.19,8.43,8.43,0,0,0,2,4.44,4.68,4.68,0,0,0,3.4,1.57c1,.05,1.93,0,2.89,0l-.71.32c-1.78.77-3.56,1.52-5.33,2.31a13.28,13.28,0,0,0-3.71,2.7,5.73,5.73,0,0,0-1.59,6.19,5.47,5.47,0,0,0,4.23,4,11.21,11.21,0,0,0,4.89-.15,93,93,0,0,0,18.35-6,37.1,37.1,0,0,0,7.35-4.3,13.93,13.93,0,0,0,3.45-3.69,6.48,6.48,0,0,0,1.17-3.35,12.78,12.78,0,0,0-.35-2.74,8.77,8.77,0,0,0-2.53-4.77,3.74,3.74,0,0,0-2.9-1.2A2.33,2.33,0,0,1,499.57,247.61Z"/><path class="cls-2" d="M481.06,288.31a37.83,37.83,0,0,0,13.48-3.47,15.83,15.83,0,0,0,2.69-1.66,19.39,19.39,0,0,0,1.77-1.85,7.93,7.93,0,0,0,2.05-5,4.78,4.78,0,0,0-.12-1.81c-.9-3.4-2.34-5-5.86-5.78a5.27,5.27,0,0,0-2.8.3c-1.9.64-3.78,1.35-5.67,2-2.64.92-5.27,1.86-7.92,2.74a29.15,29.15,0,0,0-7.37,3.5,5.29,5.29,0,0,0-2.27,3.18,5.34,5.34,0,0,0,1.23,4.74,8.5,8.5,0,0,0,6.72,3.08C478.44,288.36,479.88,288.32,481.06,288.31Z"/><path class="cls-2" d="M488.81,233a6.77,6.77,0,0,0,5.67-2.77,20.77,20.77,0,0,0,3.62-7.06,5.66,5.66,0,0,0-1.78-6.12A15.28,15.28,0,0,0,487.8,213a8.4,8.4,0,0,0-1.42-.05.75.75,0,0,0-.86.81c0,.51,0,1,0,1.55s.07,1.17.09,1.76c0,1.42.1,2.83.1,4.25a4.24,4.24,0,0,1-.26,1.51,17.36,17.36,0,0,0-1.23,5.11,6.77,6.77,0,0,0,0,1.35,4.09,4.09,0,0,0,4,3.73C488.4,233,488.6,233,488.81,233Z"/><path class="cls-3" d="M449.06,312.13a2.07,2.07,0,0,0,.39.5,3,3,0,0,0,.83.44c1,.35,2.05.68,3.08,1a4.14,4.14,0,0,0,.92.17.79.79,0,0,0,.82-.66c.06-.41-.15-.68-.61-.82-1.09-.33-2.19-.67-3.28-1-.25-.08-.48-.24-.74-.32a2.7,2.7,0,0,0-.84-.15C449.24,311.3,449,311.59,449.06,312.13Z"/><path class="cls-3" d="M433.06,296.16a26.73,26.73,0,0,0,12.65-16.7c.22-.88,1.61-.58,1.38.3a28.16,28.16,0,0,1-13.25,17.58C433.05,297.8,432.27,296.62,433.06,296.16Z"/><path class="cls-3" d="M451,256.6a37.19,37.19,0,0,1,5.62-8.73c.59-.69,1.64.25,1.05.94a36.37,36.37,0,0,0-5.42,8.44C451.88,258.08,450.62,257.43,451,256.6Z"/><path class="cls-4" d="M392.86,361.52c3.41-8.23,4.42-12.8,7.61-17.24,3-4.2,4.27-2.18,6.47-3.67,2-1.34,6.16.21,8.19.61a78.62,78.62,0,0,1,11.16,3.12c7.8,2.83,16.4,7,22.48,12.78,4.2,4,2,11.23,1.68,16.46q-1.86,30-6.47,59.81a1.15,1.15,0,0,1-.38.69,1.2,1.2,0,0,1-1.45.84q-32.81-7.86-64.92-18.16a1.15,1.15,0,0,1-2.18-.74C380.79,397.78,385.53,379.18,392.86,361.52Z"/><path class="cls-5" d="M405.9,322.24a2.11,2.11,0,0,1,2.13-.81,20.55,20.55,0,0,1,5,1.1,185,185,0,0,1,39.59,13.94c.65.17,1.09.54,1,1.21q-1.89,10.6-3.77,21.18a1.16,1.16,0,0,1-.93,1.05c-5.21.63-11.13-2-16.08-3.48q-11-3.23-21.68-7.41c-3.46-1.35-9.25-2.13-9.5-6.56-.36-6.2,2.47-13.61,3.76-19.6A1,1,0,0,1,405.9,322.24Z"/><path class="cls-4" d="M450.27,336.41c-.23,1.52-.5,3-.8,4.55-.15.72-1.3.65-1.15-.07.3-1.51.57-3,.81-4.55C449.24,335.61,450.39,335.68,450.27,336.41Z"/><path class="cls-4" d="M445.58,350.8q1-3.42,2-6.84c.21-.71,1.29-.34,1.09.37l-2.34,7.9c-.61,2-1,4.25-2.21,6-.43.6-1.38,0-.95-.65C444.51,355.69,444.93,353,445.58,350.8Z"/><path class="cls-4" d="M445,334.37A72.35,72.35,0,0,1,438.54,357c-.31.66-1.4.3-1.09-.37a71.37,71.37,0,0,0,6.42-22.33C444,333.56,445.1,333.63,445,334.37Z"/><path class="cls-4" d="M430.69,354.2c2.72-3,3.84-7.1,4.94-10.88s1.92-7.36,2.77-11.07c.17-.72,1.25-.34,1.09.37-1,4.41-2,8.83-3.41,13.15-1.07,3.37-2.22,6.66-4.64,9.3C430.94,355.62,430.2,354.74,430.69,354.2Z"/><path class="cls-4" d="M433.46,330.8q-1.65,7.59-4,15c-.22.7-1.3.33-1.08-.38q2.31-7.41,3.95-15C432.53,329.7,433.61,330.08,433.46,330.8Z"/><path class="cls-4" d="M427.42,347.85a.58.58,0,0,1,1.09.38,34,34,0,0,1-2.49,5.42c-.37.64-1.32,0-.95-.65A31.47,31.47,0,0,0,427.42,347.85Z"/><path class="cls-4" d="M423.56,340.4c.95-4,1.69-8,2.29-12.08.1-.72,1.25-.66,1.15.08-.61,4.15-1.38,8.28-2.36,12.37-.87,3.67-1.63,7.58-3.8,10.72a.58.58,0,0,1-.95-.65C422,347.8,422.71,343.94,423.56,340.4Z"/><path class="cls-4" d="M419.71,326.76c.2-.71,1.29-.33,1.09.38-2.14,7.54-2.47,15.5-5.39,22.84-.28.68-1.36.31-1.09-.38C417.24,342.27,417.57,334.31,419.71,326.76Z"/><path class="cls-4" d="M413.45,324.88q-2.28,11.06-4.55,22.11c-.15.73-1.23.34-1.09-.37q2.28-11.06,4.55-22.11C412.51,323.79,413.59,324.17,413.45,324.88Z"/><path class="cls-4" d="M408.48,324.11a42.81,42.81,0,0,0-2,8.66c-.09.73-1.24.66-1.15-.08a45.25,45.25,0,0,1,2-9A.58.58,0,0,1,408.48,324.11Z"/><path class="cls-4" d="M405.61,336.32c-.43,3.13-.76,6.26-1,9.42a.58.58,0,0,1-1.15-.08c.21-3.15.54-6.29,1-9.41C404.56,335.52,405.71,335.58,405.61,336.32Z"/><circle class="cls-6" cx="472.01" cy="82.3" r="82.29"/><text class="cls-7" transform="translate(407.12 106.76) rotate(-1.61)">-50%</text><path class="cls-8" d="M292.58,371.28l7.31-.33c5.84-.26,9.52-1,8.19-8.4a66.87,66.87,0,0,1-.76-8q-2.42-45.13-5.87-90.19c-2.25-29.35-6-58.72-7.85-88.07q-1.43-13.78-3.32-27.51c-.59-4.24-1-21.3-4.6-23.34a3.68,3.68,0,0,0-1.94-.32,128.3,128.3,0,0,0-15,1.1c-5.28.7-6.14,4.8-5.6,10.21,3.35,33.75,7.22,67.58,9.51,101.36q2.4,35.32,5,70.65,1.37,18.14,2.86,36.24c.58,6.95-1.44,27.2,7.41,26.8Z"/><path class="cls-3" d="M272.91,483.26c0-1.39,0-2.65,0-3.92-.13-4.51-.09-9,0-13.52,0-2.2-.09-4.4,0-6.6.11-4.64-.2-9.28.07-13.93.15-2.49.06-5,.1-7.47.07-4,.17-8,.25-12,.07-3.15.11-6.3.2-9.44.06-1.77.28-3.53.28-5.3,0-5.53.53-11,.69-16.56.11-3.56.4-7.1.68-10.65.17-2,.59-4,.72-5.93a59.34,59.34,0,0,1,1.05-8.08,9.56,9.56,0,0,0,.19-1.41,19.11,19.11,0,0,1,2-7c.72-1.62,1.16-1.74,1.79-3.4,1.42-3.76-4.9-67-4.46-67.45,1.85-1.8,2.37-3.65,4.2-5.47.33-.34.63-.71,1-1.06.7-.78,1.41-1.54,2.09-2.34s1.14-1.39,1.67-2.13.81-1.37,1.26-2a14,14,0,0,0,2.11-6.32,5.35,5.35,0,0,0-1.37-4.22,4.23,4.23,0,0,0-4.3-1.42,19.18,19.18,0,0,0-6.48,2.56,46.25,46.25,0,0,1-7.17,3.86c-1.29.53-2.63,1-4,1.44a15.7,15.7,0,0,0-8,6c-.74,1.08-1.6,2.1-2.25,3.24-1.2,2.1-2.3,4.26-3.42,6.41-.46.86-.87,1.74-1.3,2.62-.15.3-.32.59-.47.9l-3.57,7.56c-.16.33-.3.66-.47,1q-2.42,4.56-4.85,9.13c-1.6,3-2.71,6.13-4.05,9.2A55.89,55.89,0,0,0,233.14,336a50.12,50.12,0,0,0-.14,8.75c.09,1.56,0,3.13,0,4.69,0,1.72,0,3.44.09,5.16a83.69,83.69,0,0,1,0,9.37c-.1,1.86,0,3.72,0,5.57,0,2.29-.06,4.58-.07,6.87,0,1.42.08,2.85,0,4.28-.09,2.44-.24,4.88-.42,7.32-.2,2.6-.39,5.2-.71,7.78-.49,3.93-1.06,7.85-1.64,11.77-.42,2.8-.82,5.61-1.37,8.38-.88,4.49-1.84,9-2.82,13.43-2,9-4,18.05-6,27.07-1.18,5.33-2.38,10.65-3.53,16-.79,3.65-1.44,7.33-2.25,11a51.57,51.57,0,0,0-1.21,5.78,2.64,2.64,0,0,0,.5,1.88,1.8,1.8,0,0,0,2.14.79c1.66-.27,3.32-.48,5-.73a1.73,1.73,0,0,0,.66-.15,4.18,4.18,0,0,1,1.9-.42c3.44-.45,6.88-.88,10.32-1.36,3.27-.46,6.55-1,9.82-1.48,5-.78,10-1.61,15.05-2.36,4-.6,8.09-1.12,12.13-1.68C271.33,483.53,272.09,483.39,272.91,483.26Z"/><path class="cls-3" d="M317.44,287.25c.84-1,1.62-1.94,2.34-2.89,1.19-1.59,2.35-3.2,2.45-5.29a14.1,14.1,0,0,0-.66-5.36,8.16,8.16,0,0,0-5.84-5.22,8.87,8.87,0,0,0-7.61.74c-1.44.73-4.7,2.47-6.08,3.31,0,0,0,1,.17,1.87a5.36,5.36,0,0,1-.21,2.25,49.74,49.74,0,0,1-7.1,6.89,31.91,31.91,0,0,0-5,4.79,15.28,15.28,0,0,0-2.21,4,3.87,3.87,0,0,0-.1,2.21,8.32,8.32,0,0,0,2.41,4.26,4.68,4.68,0,0,0,3.55,1.28c1,0,1.93-.16,2.89-.25l-.69.38c-1.71.93-3.43,1.84-5.13,2.78a13.19,13.19,0,0,0-3.47,3,5.75,5.75,0,0,0-1.06,6.34,5.49,5.49,0,0,0,4.59,3.66,11.4,11.4,0,0,0,4.88-.57,93.94,93.94,0,0,0,17.83-7.65,37.36,37.36,0,0,0,7-4.94,14.16,14.16,0,0,0,3.13-4,6.46,6.46,0,0,0,.88-3.45,13.54,13.54,0,0,0-.59-2.71,8.77,8.77,0,0,0-3-4.55,3.76,3.76,0,0,0-3-.95A2,2,0,0,1,317.44,287.25Z"/><path class="cls-3" d="M302.47,329.58a38.18,38.18,0,0,0,13.18-4.64,15.94,15.94,0,0,0,2.55-1.9,19.68,19.68,0,0,0,1.61-2,8,8,0,0,0,1.62-5.14,5,5,0,0,0-.28-1.8c-1.2-3.32-2.77-4.76-6.37-5.27a5.3,5.3,0,0,0-2.78.54c-1.84.81-3.66,1.68-5.49,2.51-2.56,1.15-5.11,2.32-7.69,3.43a29.6,29.6,0,0,0-7.06,4.14,5.3,5.3,0,0,0-2,3.38,5.36,5.36,0,0,0,1.64,4.64,8.57,8.57,0,0,0,7,2.5C299.85,329.86,301.29,329.69,302.47,329.58Z"/><path class="cls-3" d="M305.4,273.6a6.83,6.83,0,0,0,5.44-3.27,20.72,20.72,0,0,0,3-7.38,5.66,5.66,0,0,0-2.31-6,15.33,15.33,0,0,0-8.88-3.34,8.45,8.45,0,0,0-1.42.07.77.77,0,0,0-.8.89c0,.52.07,1,.13,1.55s.17,1.17.24,1.75c.17,1.42.35,2.83.47,4.25a3.93,3.93,0,0,1-.13,1.53,17.47,17.47,0,0,0-.78,5.22,7.63,7.63,0,0,0,.14,1.35,4.13,4.13,0,0,0,4.29,3.39C305,273.64,305.2,273.61,305.4,273.6Z"/><path class="cls-2" d="M278.17,278.92c.41-.12.83-.22,1.23-.37.74-.29,1.47-.6,2.2-.93a7.59,7.59,0,0,0,3.92-3.69,9.54,9.54,0,0,0,.81-4.78,3.52,3.52,0,0,0-.57-1.57,1.58,1.58,0,0,0-2.11-.68,33.44,33.44,0,0,0-6.08,3,21.06,21.06,0,0,0-2.2,1.58,2.35,2.35,0,0,0-.81,1.67,7.33,7.33,0,0,0,1,4.62A2.27,2.27,0,0,0,278.17,278.92Z"/><path class="cls-2" d="M296.57,288.88a15.63,15.63,0,0,0-3.91,1.12,3.73,3.73,0,0,0-2.28,4.13,7.23,7.23,0,0,0,1.62,4,4.69,4.69,0,0,0,1.3,1.08,2.59,2.59,0,0,0,2.23.14,8.86,8.86,0,0,0,3-2,25.61,25.61,0,0,0,2.22-2.2,6.48,6.48,0,0,0,1-1.59,3.45,3.45,0,0,0-3.06-4.71C298,288.77,297.27,288.85,296.57,288.88Z"/><path class="cls-2" d="M292.54,305.79c-.9.23-2,.47-3,.78a5.13,5.13,0,0,0-1.21.62,1.66,1.66,0,0,0-.79,1.49,10.28,10.28,0,0,0,1.32,5.61,2.9,2.9,0,0,0,1.41,1.5,2.13,2.13,0,0,0,1.59,0,16.56,16.56,0,0,0,6.18-3.86,3.75,3.75,0,0,0,1.26-2.55,2.76,2.76,0,0,0-.19-1.25,7.71,7.71,0,0,0-1.1-1.62,3,3,0,0,0-2.53-.9Z"/><path class="cls-2" d="M295.63,318.71c-.86.19-1.6.32-2.32.52-1.92.55-2.34,1.47-2.24,3.26a9.59,9.59,0,0,0,1.13,3.81,1.83,1.83,0,0,0,2,1,8.85,8.85,0,0,0,3-1,13.27,13.27,0,0,0,1.78-1.12,3.48,3.48,0,0,0,1.33-4,3.73,3.73,0,0,0-3.35-2.55Z"/><path class="cls-2" d="M311,264a3.51,3.51,0,0,0-2-2.72,13.79,13.79,0,0,0-1.78-.85,2.82,2.82,0,0,0-2.11.18,4.75,4.75,0,0,0-2,1.95,3.25,3.25,0,0,0,.13,3.53,9.35,9.35,0,0,0,4.13,4,1.69,1.69,0,0,0,2.6-.82A10.1,10.1,0,0,0,311,264Z"/><path class="cls-2" d="M272.53,356.21a2.14,2.14,0,0,0,.43.46,3,3,0,0,0,.87.37c1.05.26,2.11.5,3.16.73a3.75,3.75,0,0,0,.94.09.8.8,0,0,0,.77-.73c0-.42-.22-.67-.69-.77-1.12-.23-2.24-.48-3.36-.73-.27-.06-.51-.2-.77-.26a2.51,2.51,0,0,0-.86-.07C272.64,355.35,272.46,355.66,272.53,356.21Z"/><path class="cls-2" d="M255.12,341.62a26.9,26.9,0,0,0,11.21-17.82c.14-.89,1.55-.72,1.4.19A28.32,28.32,0,0,1,256,342.74C255.26,343.26,254.38,342.15,255.12,341.62Z"/><path class="cls-2" d="M269.63,300.47a37.58,37.58,0,0,1,4.87-9.23c.53-.74,1.66.12,1.13.86A36,36,0,0,0,271,301C270.64,301.87,269.32,301.33,269.63,300.47Z"/><path class="cls-4" d="M282.05,394.3a27.68,27.68,0,0,1-7.78,3.61c-3.54.79-6.06-.17-8.92-2.2-3.25-2.31-6.31-1.39-9.34.89-2.58,1.93-4.77,4.67-8.26,4.2-3.25-.44-4.13-3.37-6.09-5.58s-5-3.3-7.53-1.11a19.64,19.64,0,0,0-3.67,4.78c-.79,1.32-1.19,2.92-3,1.61-.67-.49-1.16-1.53-1.86-2.07-2-1.55-5.65-2.68-6.48.53-.57,2.21-.25,5-.34,7.24q-.18,4.55-.37,9.09-.35,8.82-.7,17.62-.78,19.89-1.58,39.78c-.12.36,0,.72.37.8a234.77,234.77,0,0,0,29.2,3.5,85.28,85.28,0,0,0,13.84.1,24,24,0,0,0,6-1.43c1.05-.41,7.36-3.58,7.74-2.08a.38.38,0,0,0,.11.22.57.57,0,0,0,1.08,0c6.57-25.82,5.3-52.67,8.47-79C283,394.36,282.4,394.1,282.05,394.3Z"/><circle class="cls-6" cx="274.51" cy="125.12" r="84.9"/><text class="cls-9" transform="translate(230.55 151.64) rotate(-4.58)">2в1</text><path class="cls-1" d="M55.66,327.5l-7.12-.59c-5.67-.46-9.24-1.32-7.68-8.49a62.89,62.89,0,0,0,1-7.76q4-43.89,9-87.7c3.25-28.53,8-57,10.83-85.57q1.89-13.39,4.23-26.7c.73-4.11,1.73-20.72,5.32-22.58a3.52,3.52,0,0,1,1.9-.25,128.16,128.16,0,0,1,14.62,1.62c5.12.87,5.81,4.9,5.1,10.15-4.48,32.78-9.48,65.62-12.93,98.46q-3.6,34.36-7.43,68.7-2,17.63-4.1,35.22c-.81,6.75.42,26.57-8.18,25.86Z"/><path class="cls-2" d="M85,437.39c0-1.35-.11-2.59-.11-3.82,0-4.4-.18-8.8-.41-13.19-.11-2.14,0-4.29-.15-6.43-.24-4.52-.08-9.06-.48-13.58-.22-2.42-.21-4.86-.32-7.29-.19-3.88-.4-7.76-.6-11.65-.16-3.07-.29-6.13-.48-9.2-.1-1.72-.37-3.43-.42-5.15-.17-5.4-.84-10.75-1.17-16.13-.21-3.46-.59-6.92-1-10.36-.22-1.93-.69-3.84-.87-5.77A57.68,57.68,0,0,0,77.72,327a9.22,9.22,0,0,1-.22-1.38,18.73,18.73,0,0,0-2.12-6.72,20.76,20.76,0,0,0-2.71-4.4c-.37-.44-4.42-2.2-4.84-2.59s5.4-52,5.93-56.32c.07-.6,1.13-8,.7-8.41-1.86-1.7-1-.93-2.83-2.65-.34-.32-.64-.67-1-1-.71-.73-1.42-1.45-2.1-2.21s-1.17-1.33-1.7-2S66,238,65.58,237.33a13.52,13.52,0,0,1-2.24-6.11,5.22,5.22,0,0,1,1.2-4.15,4.15,4.15,0,0,1,4.16-1.51,18.78,18.78,0,0,1,6.39,2.3,45.74,45.74,0,0,0,7.1,3.56c1.29.48,2.6.87,3.91,1.29a15.29,15.29,0,0,1,8,5.63c.75,1,1.62,2,2.29,3.08,1.24,2,2.37,4.09,3.53,6.15.46.83.89,1.68,1.34,2.52.15.29.33.57.48.87q1.86,3.63,3.71,7.26c.16.31.31.64.49.94,1.66,2.92,3.31,5.85,5,8.76s2.82,5.9,4.21,8.86a54.36,54.36,0,0,1,4.26,15.8,49.72,49.72,0,0,1,.39,8.54c0,1.52.13,3,.17,4.57,0,1.68.1,3.36.06,5a84.4,84.4,0,0,0,.26,9.14c.15,1.81.11,3.62.17,5.43.09,2.23.2,4.46.28,6.69,0,1.39,0,2.79.1,4.18q.26,3.57.63,7.12c.27,2.53.54,5.06.93,7.57.59,3.82,1.26,7.62,2,11.43.48,2.72,1,5.44,1.57,8.13,1,4.35,2.06,8.68,3.15,13,2.2,8.74,4.44,17.48,6.66,26.21,1.31,5.16,2.64,10.32,3.91,15.49.88,3.54,1.62,7.11,2.52,10.64a48.57,48.57,0,0,1,1.35,5.6,2.56,2.56,0,0,1-.42,1.84A1.76,1.76,0,0,1,141,444c-1.63-.21-3.26-.37-4.88-.56a1.72,1.72,0,0,1-.65-.14,4.24,4.24,0,0,0-1.86-.34c-3.37-.34-6.74-.65-10.1-1-3.21-.36-6.42-.76-9.62-1.16-4.92-.61-9.83-1.27-14.75-1.85-4-.47-7.92-.86-11.88-1.29C86.53,437.6,85.79,437.49,85,437.39Z"/><path class="cls-2" d="M35.76,247.59c-.85-1-1.64-1.84-2.37-2.75-1.21-1.51-2.39-3-2.54-5.08a13.7,13.7,0,0,1,.48-5.25,7.94,7.94,0,0,1,5.54-5.26,10,10,0,0,1,3.18-.61,10,10,0,0,1,4.26,1.11c1.42.66,4.11,1.89,5.47,2.66,0,0,0,.77-.17,1.57a2.63,2.63,0,0,0,.7,2.62,51.72,51.72,0,0,0,7.32,6.71,31.62,31.62,0,0,1,5,4.53,14.36,14.36,0,0,1,2.27,3.87,3.8,3.8,0,0,1,.17,2.16,8.24,8.24,0,0,1-2.22,4.22,4.57,4.57,0,0,1-3.43,1.36c-.94,0-1.88-.11-2.82-.16l.68.35c1.69.85,3.4,1.68,5.09,2.56A13,13,0,0,1,65.85,265a5.59,5.59,0,0,1,1.22,6.14,5.35,5.35,0,0,1-4.37,3.71,11,11,0,0,1-4.77-.41,92,92,0,0,1-17.62-6.93,36.39,36.39,0,0,1-6.94-4.61,13.73,13.73,0,0,1-3.18-3.81,6.38,6.38,0,0,1-1-3.34,13.69,13.69,0,0,1,.5-2.66,8.53,8.53,0,0,1,2.74-4.52,3.66,3.66,0,0,1,2.91-1A2.73,2.73,0,0,0,35.76,247.59Z"/><path class="cls-2" d="M51.61,288.42a37.13,37.13,0,0,1-13-4.13,16.16,16.16,0,0,1-2.55-1.78,18.76,18.76,0,0,1-1.62-1.91,7.81,7.81,0,0,1-1.74-5,5,5,0,0,1,.22-1.77c1.07-3.27,2.57-4.72,6.06-5.32a5,5,0,0,1,2.72.44c1.82.73,3.62,1.53,5.43,2.28,2.53,1.05,5,2.12,7.6,3.12a28.77,28.77,0,0,1,7,3.83,5.09,5.09,0,0,1,.58,7.8,8.31,8.31,0,0,1-6.74,2.65C54.17,288.62,52.76,288.5,51.61,288.42Z"/><path class="cls-2" d="M47,229.14a6.66,6.66,0,0,1-5.19-3.37,20.28,20.28,0,0,1-2.68-7.3,5.52,5.52,0,0,1,2.46-5.74,15,15,0,0,1,8.77-3,9.18,9.18,0,0,1,1.38.12.74.74,0,0,1,.75.89c0,.51-.11,1-.18,1.51s-.21,1.13-.3,1.7c-.21,1.37-.43,2.75-.6,4.13a4,4,0,0,0,.08,1.5,16.94,16.94,0,0,1,.58,5.11,7.24,7.24,0,0,1-.18,1.31,4,4,0,0,1-4.3,3.16C47.36,229.19,47.16,229.16,47,229.14Z"/><path class="cls-5" d="M73.8,238.31c-.41-.11-.82-.19-1.21-.33-.73-.26-1.45-.54-2.17-.84a7.34,7.34,0,0,1-3.93-3.48,9.27,9.27,0,0,1-.94-4.64,3.69,3.69,0,0,1,.51-1.55,1.55,1.55,0,0,1,2-.72,32.39,32.39,0,0,1,6,2.77,18.72,18.72,0,0,1,2.2,1.47,2.32,2.32,0,0,1,.84,1.6,7.18,7.18,0,0,1-.88,4.54A2.21,2.21,0,0,1,73.8,238.31Z"/><path class="cls-5" d="M56.15,248.57a15,15,0,0,1,3.85,1,3.65,3.65,0,0,1,2.35,4,7.15,7.15,0,0,1-1.46,3.91,5,5,0,0,1-1.24,1.09,2.54,2.54,0,0,1-2.17.2,8.5,8.5,0,0,1-2.94-1.88,24.39,24.39,0,0,1-2.23-2.08,6.43,6.43,0,0,1-1.05-1.52,3.38,3.38,0,0,1,2.84-4.69C54.78,248.49,55.47,248.55,56.15,248.57Z"/><path class="cls-5" d="M60.58,264.93c.89.2,2,.4,3,.68a5,5,0,0,1,1.2.56,1.64,1.64,0,0,1,.82,1.43,10.14,10.14,0,0,1-1.13,5.51,2.79,2.79,0,0,1-1.33,1.5,2.08,2.08,0,0,1-1.55,0,16.18,16.18,0,0,1-6.13-3.57,3.74,3.74,0,0,1-1.32-2.46,2.76,2.76,0,0,1,.16-1.22,7,7,0,0,1,1-1.61,2.89,2.89,0,0,1,2.44-1C58.64,264.85,59.52,264.89,60.58,264.93Z"/><path class="cls-5" d="M58,277.62c.85.16,1.57.26,2.28.44,1.89.48,2.33,1.36,2.28,3.11a9.33,9.33,0,0,1-1,3.75A1.78,1.78,0,0,1,59.58,286a8.77,8.77,0,0,1-3-.9,12.61,12.61,0,0,1-1.77-1,3.38,3.38,0,0,1-1.41-3.82,3.65,3.65,0,0,1,3.19-2.59Z"/><path class="cls-5" d="M41.81,219.59A3.44,3.44,0,0,1,43.9,217a12.46,12.46,0,0,1,1.76-.76,2.68,2.68,0,0,1,2.05.25,4.52,4.52,0,0,1,1.9,2,3.15,3.15,0,0,1-.24,3.43,9.12,9.12,0,0,1-4.17,3.74,1.63,1.63,0,0,1-2.5-.89A9.74,9.74,0,0,1,41.81,219.59Z"/><path class="cls-3" d="M81.59,313.5a2.21,2.21,0,0,1-.41.46,2.87,2.87,0,0,1-.83.39c-1,.28-2,.55-3.07.81a3.48,3.48,0,0,1-.91.1.76.76,0,0,1-.77-.68c0-.41.19-.66.65-.77,1.08-.26,2.17-.53,3.26-.82.25-.06.49-.2.74-.27a2.62,2.62,0,0,1,.83-.1C81.46,312.67,81.64,313,81.59,313.5Z"/><path class="cls-3" d="M98.13,298.76a26.2,26.2,0,0,1-11.45-17c-.17-.87-1.54-.66-1.37.22a27.6,27.6,0,0,0,12,17.93C98.05,300.36,98.87,299.25,98.13,298.76Z"/><path class="cls-3" d="M82.76,259.07a36.94,36.94,0,0,0-5-8.86c-.54-.7-1.62.17-1.08.87a35.29,35.29,0,0,1,4.84,8.56C81.82,260.47,83.09,259.9,82.76,259.07Z"/><path class="cls-4" d="M133.41,365.23c1.74,6.2,3.5,12.4,5.22,18.61,3,11,6.07,21.94,8.48,33.08.9,4.16,2,8.27,3,12.42a45.67,45.67,0,0,1,1.35,8.93,4.16,4.16,0,0,1-3.06,4.51,12.15,12.15,0,0,1-5.38.6c-2.64-.32-5.26-.74-7.88-1.11l-.62-.11-20-2.48c-2.38-.3-4.75-.6-7.13-.86-1.6-.18-3.22-.26-4.82-.41A18.11,18.11,0,0,1,97,437.3a4.21,4.21,0,0,0-1.37-.25l-8-.39a40.74,40.74,0,0,1-8.15-1.31,9.24,9.24,0,0,1-2.25-1.06,3.63,3.63,0,0,1-1.75-2.82c0-.46-.07-.93-.08-1.4,0-2.85-.05-5.71-.09-8.57,0-2.7-.11-5.4-.12-8.11,0-3.12,0-6.24,0-9.36,0-2.44,0-4.89.11-7.33.1-3,.22-6,.4-9,.13-2.13.39-4.25.58-6.37l.75.21a7.35,7.35,0,0,0,7.18-1.29c.67-.57,1.29-1.19,2-1.86.55.22,1.14.41,1.69.67a30.11,30.11,0,0,0,5.41,2,10.12,10.12,0,0,0,4.77,0,4.84,4.84,0,0,0,2.73-1.7c.32-.39.7-.74,1.09-1.16l2.64,1a16.44,16.44,0,0,0,10.22.88,9.09,9.09,0,0,0,6.59-5.42c.18-.42.41-.81.57-1.15l.28-.05.62.08a5.82,5.82,0,0,0,6.12-2.81,9.43,9.43,0,0,0,1.52-3.72c.07-.44.22-.88.35-1.37Z"/><path class="cls-10" d="M133.41,365.23l-2.54.32c-.13.49-.28.93-.35,1.37a9.43,9.43,0,0,1-1.52,3.72,5.82,5.82,0,0,1-6.12,2.81l-.62-.08-.28.05c-.16.34-.39.73-.57,1.15a9.09,9.09,0,0,1-6.59,5.42,16.44,16.44,0,0,1-10.22-.88l-2.64-1c-.39.42-.77.77-1.09,1.16a4.84,4.84,0,0,1-2.73,1.7,10.12,10.12,0,0,1-4.77,0A30.11,30.11,0,0,1,88,379c-.55-.26-1.14-.45-1.69-.67-.73.67-1.35,1.29-2,1.86a7.35,7.35,0,0,1-7.18,1.29l-.75-.21a4.44,4.44,0,0,1-2.13-2.19,15.57,15.57,0,0,1-.72-2.9l-.9.1a4.21,4.21,0,0,1-3.45-1.11,6.37,6.37,0,0,1-2.21-5,7,7,0,0,1,.65-2.21c.26-.67.64-1.3.94-2a6.32,6.32,0,0,0,.23-.93,4.21,4.21,0,0,1-2.27-4.58,4.75,4.75,0,0,1,3.07-4.24c-.1-.43-.18-.82-.29-1.2a30.89,30.89,0,0,1-1-3.57c-.64-3.92,1-7.72,4.81-9.32.28-.12.58-.23,1-.37a5.44,5.44,0,0,1,.27-2.51c1.15-2.55,4.2-4.29,6.69-3.8a8.51,8.51,0,0,1,2.37.7l.87.43a5.11,5.11,0,0,0,.57-.78,8.35,8.35,0,0,1,1.79-2.51,11.21,11.21,0,0,1,6.19-3.31,7.54,7.54,0,0,1,4.4.52c.71.3,1.41.64,2,.92.81-.17.83-.87,1.07-1.34a12.08,12.08,0,0,1,3.49-4.31,6.31,6.31,0,0,1,4-1.57,2.43,2.43,0,0,0,.54-.1A9.48,9.48,0,0,1,115,329.1a5.22,5.22,0,0,0,.88-.4,12.48,12.48,0,0,1,3.39-1.53,6.3,6.3,0,0,1,6.8,2.23,8.08,8.08,0,0,1,.62,1.25c.25.62.46,1.26.73,2a6.87,6.87,0,0,0,.89-.26,10.38,10.38,0,0,1,4.24-.86,4.84,4.84,0,0,1,3.42,1.26,6.64,6.64,0,0,1,2.36,6.13c-.11.66-.17,1.33-.26,2.06l2.18,1.72a6.72,6.72,0,0,1,2.52,5.6,5.81,5.81,0,0,1-1,2.92c-.37.62-.79,1.21-1.21,1.84.22.36.42.66.58,1a5.9,5.9,0,0,1,.28,5.52,9.94,9.94,0,0,1-6.78,5.47A11.94,11.94,0,0,1,133.41,365.23Z"/><circle class="cls-6" cx="82.81" cy="82.81" r="82.81"/><text class="cls-11" transform="matrix(0.99, 0.15, -0.15, 0.99, 35.29, 97.94)">3+1</text><rect class="cls-12" x="32.23" y="406.25" width="456.86" height="103.73" rx="12" ry="12"/><text class="cls-13" transform="translate(172.65 471.39)">ПО<tspan class="cls-14" x="50.56" y="0">Е</tspan><tspan class="cls-15" x="70.26" y="0">Х</tspan><tspan class="cls-16" x="93.97" y="0">А</tspan><tspan x="118.57" y="0">ЛИ!</tspan></text></g></g></svg>