<svg xmlns="http://www.w3.org/2000/svg" viewBox="0 0 73.67 73.67"><defs><style>.cls-1{fill:none;stroke:#fff;stroke-miterlimit:10;}.cls-2{fill:#fff;fill-rule:evenodd;}</style></defs><title>tw</title><g id="Слой_2" data-name="Слой 2"><g id="Слой_1-2" data-name="Слой 1"><rect class="cls-1" x="0.5" y="0.5" width="72.67" height="72.67" rx="12" ry="12"/><path class="cls-2" d="M16.28,18C21,24.3,27.76,28.46,37.41,29.65c0,0-1.24-13.07,9.49-13.09,3.75,0,6.48,1.31,8.28,3.5A18.59,18.59,0,0,0,61,17.57a9.38,9.38,0,0,1-3.82,5.57,18.57,18.57,0,0,0,5.18-1.69,9.48,9.48,0,0,1-4.57,5.19c.85,6.9-2.14,16-8.1,22.76C42,58.18,28,63.56,13.31,54.2a19.59,19.59,0,0,0,14.83-4.55c-5-.37-8.11-2.95-9.55-7.36A8.58,8.58,0,0,0,23,42c-5.47-1.77-7.72-5.61-8.09-10.67a8.09,8.09,0,0,0,4.55,1.34C14.9,28.3,14.07,23.39,16.28,18Z"/></g></g></svg>