<svg xmlns="http://www.w3.org/2000/svg" viewBox="0 0 73.67 73.67"><defs><style>.cls-1{fill:none;stroke:#fff;stroke-miterlimit:10;}.cls-2{fill:#fff;fill-rule:evenodd;}</style></defs><title>vk</title><g id="Слой_2" data-name="Слой 2"><g id="Слой_1-2" data-name="Слой 1"><rect class="cls-1" x="0.5" y="0.5" width="72.67" height="72.67" rx="12" ry="12"/><path class="cls-2" d="M12,23.63h6.48c2.41,0,2.37.39,3.1,1.66,2.65,4.6,6.34,11.37,9.16,10.93v-9c0-3.53-2.33-1.94-2.46-3.21-.07-.66,1.12-1.72,3.29-1.72h7.48c1.92,0,2.11,1.05,2.11,2.14,0,4-.05,7.78-.07,11.81,3.81-.33,6.6-6,8.94-10.45,1.28-2.44,1.49-2.14,3.39-2.14h7.2c1.62,0,2,.65.93,2.3-2.3,3.66-4.78,7.63-7.2,11.33-.78,1.2-1.27,1.38.14,3.06,2.73,3.23,5.59,6,8.29,9.25.61.74.4,1.82-1.32,1.82H52.29c-1.23,0-1.7,0-3.18-1.6-2.3-2.44-4.45-4.87-7.69-5.2v5.11c0,1-.41,1.67-1.89,1.67h-6c-8.58,0-18.28-17.25-22.57-25.71-.84-1.67-.07-2,1.09-2Z"/></g></g></svg>